# This file uses centimeters as units for non-parametric coordinates.

mtllib Sidewalk_Short.mtl
g default
v -2703.104167 -12.367640 1200.408940
v -2703.104045 -12.367849 -296.276668
v -2703.104167 10.000062 1200.408940
v -2703.104045 10.000062 -296.276668
v -2722.151653 10.000062 1200.408940
v -2722.151653 10.000062 -296.276668
v -3803.104106 10.000062 1200.408940
v -3803.104106 10.000062 -296.276668
v -2722.151653 -12.368018 -296.276668
v -3803.104106 -12.368018 -296.276668
v -2722.151653 -12.367597 1200.408940
v -3803.104106 -12.367597 1200.408940
vt 0.031745 0.000000
vt 1.000000 1.000000
vt 0.000000 1.000000
vt 0.000000 1.000000
vt 1.000000 1.000000
vt 0.069028 0.000000
vt 0.000000 1.000000
vt 1.000000 1.000000
vt 0.000002 0.000000
vt 1.000000 0.000000
vt 0.000000 0.000000
vt 1.000000 1.000000
vt 0.069026 0.000000
vt 0.000000 1.000000
vt 1.000000 1.000000
vt 0.000000 1.000000
vt 1.000000 1.000000
vt 0.037281 0.000000
vt 0.000000 1.000000
vn 1.000000 0.000000 -0.000000
vn 1.000000 0.000000 -0.000000
vn 1.000000 0.000000 -0.000000
vn 1.000000 0.000000 -0.000000
vn 0.000000 1.000000 0.000000
vn 0.000000 1.000000 0.000000
vn 0.000000 1.000000 0.000000
vn 0.000000 1.000000 0.000000
vn 0.000000 1.000000 0.000000
vn 0.000000 1.000000 0.000000
vn 0.000000 1.000000 0.000000
vn 0.000000 1.000000 0.000000
vn -0.000000 0.000000 -1.000000
vn -0.000000 0.000000 -1.000000
vn -0.000000 0.000000 -1.000000
vn -0.000000 0.000000 -1.000000
vn -0.000004 0.000000 -1.000000
vn -0.000004 0.000000 -1.000000
vn -0.000004 0.000000 -1.000000
vn -0.000004 0.000000 -1.000000
vn 0.000000 0.000000 1.000000
vn 0.000000 0.000000 1.000000
vn 0.000000 0.000000 1.000000
vn 0.000000 0.000000 1.000000
vn 0.000004 0.000000 1.000000
vn 0.000004 0.000000 1.000000
vn 0.000004 0.000000 1.000000
vn 0.000004 0.000000 1.000000
vn -1.000000 0.000000 0.000000
vn -1.000000 0.000000 0.000000
vn -1.000000 0.000000 0.000000
vn -1.000000 0.000000 0.000000
s off
g Road_part10
usemtl Road_part2SG1
f 1/13/1 2/9/2 4/18/3 3/1/4
f 4/18/5 6/6/6 5/11/7 3/1/8
usemtl Road_part2SG
f 6/10/9 8/17/10 7/14/11 5/11/12
f 6/5/13 9/12/14 10/8/15 8/17/16
usemtl Road_part2SG1
f 6/5/17 4/15/18 2/2/19 9/12/20
usemtl Road_part2SG
f 7/14/21 12/3/22 11/19/23 5/4/24
usemtl Road_part2SG1
f 3/16/25 5/4/26 11/19/27 1/7/28
usemtl Road_part2SG
f 8/17/29 10/8/30 12/3/31 7/14/32
