# This file uses centimeters as units for non-parametric coordinates.

mtllib Sidewalk_Corner.mtl
g default
v -2106.485862 -12.367640 295.427111
v -2106.485618 -12.367849 1199.731798
v -2106.485862 10.000062 295.427111
v -2106.485618 10.000062 1199.731798
v -2087.438011 10.000062 295.427233
v -2087.438011 10.000062 1199.731676
v -1202.852928 10.000062 295.427111
v -1202.853050 10.000062 1199.731676
v -2087.438011 -12.368018 1199.731676
v -1202.853050 -12.368018 1199.731676
v -2087.438011 -12.367597 295.427233
v -1202.852928 -12.367597 295.427111
v -1202.852928 -12.367600 315.736803
v -1202.852928 10.000062 315.736803
v -2087.438011 10.000062 315.736925
v -2106.485862 10.000062 315.736803
v -2106.485862 -12.367641 315.736803
vt 0.031745 0.000000
vt 1.000000 1.000000
vt 0.000000 1.000000
vt 0.000000 1.000000
vt 1.000000 1.000000
vt 0.069028 0.000000
vt 0.000000 1.000000
vt 1.000000 1.000000
vt 0.000002 0.000000
vt 1.000000 0.000000
vt 0.000000 0.000000
vt 1.000000 1.000000
vt 0.069026 0.000000
vt 0.000000 1.000000
vt 1.000000 1.000000
vt 0.000000 1.000000
vt 1.000000 1.000000
vt 0.037281 0.000000
vt 0.000000 1.000000
vt 0.008462 1.000000
vt 0.008462 1.000000
vt 0.033849 1.000000
vt 0.000000 0.033849
vt 0.033849 0.000000
vt 0.031745 0.033849
vt 0.069026 0.033849
vn -1.000000 0.000000 0.000000
vn -1.000000 0.000000 -0.000000
vn -1.000000 0.000000 -0.000000
vn -1.000000 0.000000 0.000000
vn 0.000000 1.000000 0.000000
vn 0.000000 1.000000 0.000000
vn 0.000000 1.000000 -0.000000
vn 0.000000 1.000000 -0.000000
vn -0.000000 0.000000 1.000000
vn -0.000000 0.000000 1.000000
vn -0.000000 0.000000 1.000000
vn -0.000000 0.000000 1.000000
vn 0.000004 0.000000 1.000000
vn 0.000004 0.000000 1.000000
vn 0.000004 0.000000 1.000000
vn 0.000004 0.000000 1.000000
vn 0.000000 0.000000 -1.000000
vn 0.000000 0.000000 -1.000000
vn 0.000000 0.000000 -1.000000
vn 0.000000 0.000000 -1.000000
vn -0.000004 0.000000 -1.000000
vn -0.000004 0.000000 -1.000000
vn -0.000004 0.000000 -1.000000
vn -0.000004 0.000000 -1.000000
vn 1.000000 0.000000 0.000000
vn 1.000000 0.000000 0.000000
vn 1.000000 0.000000 0.000000
vn 1.000000 0.000000 0.000000
vn 0.000000 1.000000 0.000000
vn 0.000000 1.000000 0.000000
vn 0.000000 1.000000 0.000000
vn 0.000000 1.000000 0.000000
vn 1.000000 0.000000 0.000000
vn 1.000000 0.000000 0.000000
vn 0.000000 1.000000 0.000000
vn 0.000000 1.000000 0.000000
vn 0.000000 1.000000 0.000000
vn 0.000000 1.000000 0.000000
vn -1.000000 0.000000 -0.000000
vn -1.000000 0.000000 -0.000000
s 1
g Road_part9
usemtl Road_part2SG1
f 17/26/1 2/9/2 4/18/3 16/25/4
s 2
f 4/18/5 6/6/6 15/23/7 16/25/8
s off
usemtl Road_part2SG
f 8/17/9 6/5/10 9/12/11 10/8/12
usemtl Road_part2SG1
f 6/5/13 4/15/14 2/2/15 9/12/16
usemtl Road_part2SG
f 7/14/17 12/3/18 11/19/19 5/4/20
usemtl Road_part2SG1
f 3/16/21 5/4/22 11/19/23 1/7/24
s 3
usemtl Road_part2SG
f 8/17/25 10/8/26 13/20/27 14/21/28
s 4
f 8/17/29 14/22/30 15/24/31 6/10/32
s 3
f 7/14/33 14/21/28 13/20/27 12/3/34
s 4
f 14/22/30 7/14/35 5/11/36 15/24/31
s 2
usemtl Road_part2SG1
f 3/1/37 16/25/8 15/23/7 5/11/38
s 1
f 1/13/39 17/26/1 16/25/4 3/1/40
