# This file uses centimeters as units for non-parametric coordinates.

mtllib Cross.mtl
g default
v 2275.949208 0.000105 3309.280775
v 774.197987 -0.000053 3309.280775
v 1374.228260 0.000000 3309.280775
v 1374.228260 0.000000 4209.337904
v 774.197987 -0.000053 4209.337904
v 774.197987 -0.000053 3004.909438
v 2275.949208 0.000105 3004.909193
v 1374.228260 0.000000 3004.909193
v 2275.949208 0.000105 2700.538100
v 774.197987 -0.000053 2700.538100
v 1374.228260 -0.000000 2700.538100
v 1374.228260 -0.000000 1800.480971
v 774.197987 -0.000053 1800.480971
v -125.296520 -0.000053 3309.280775
v -125.296520 -0.000053 3004.909438
v -125.296520 -0.000053 2700.538100
vt 0.622010 0.374148
vt 0.994854 0.374148
vt 0.994854 0.500000
vt 0.622010 0.500000
vt 0.622010 0.625852
vt 0.994854 0.625852
vt 0.373909 0.500000
vt 0.373909 0.374148
vt 0.373909 0.625852
vt 0.001986 0.500000
vt 0.001986 0.374148
vt 0.373909 0.001992
vt 0.622010 0.001992
vt 0.622010 0.998008
vt 0.373909 0.998008
vt 0.001986 0.625852
vn -0.000000 1.000000 0.000000
vn -0.000000 1.000000 0.000000
vn -0.000000 1.000000 0.000000
vn -0.000000 1.000000 0.000000
vn -0.000000 1.000000 0.000000
vn -0.000000 1.000000 0.000000
vn -0.000000 1.000000 0.000000
vn -0.000000 1.000000 0.000000
vn -0.000000 1.000000 0.000000
vn -0.000000 1.000000 0.000000
vn -0.000000 1.000000 0.000000
vn -0.000000 1.000000 0.000000
vn -0.000000 1.000000 0.000000
vn -0.000000 1.000000 0.000000
vn -0.000000 1.000000 0.000000
vn -0.000000 1.000000 0.000000
vn -0.000000 1.000000 0.000000
vn -0.000000 1.000000 0.000000
vn -0.000000 1.000000 0.000000
vn -0.000000 1.000000 0.000000
vn -0.000000 1.000000 0.000000
vn -0.000000 1.000000 0.000000
vn -0.000000 1.000000 0.000000
vn -0.000000 1.000000 0.000000
vn 0.000000 1.000000 0.000000
vn 0.000000 1.000000 0.000000
vn 0.000000 1.000000 0.000000
vn 0.000000 1.000000 0.000000
vn 0.000000 1.000000 0.000000
vn 0.000000 1.000000 0.000000
vn 0.000000 1.000000 0.000000
vn 0.000000 1.000000 0.000000
s off
g Road_part20
usemtl lambert3SG
f 3/1/1 1/2/2 7/3/3 8/4/4
f 3/1/5 2/8/6 5/12/7 4/13/8
f 8/4/9 6/7/10 2/8/11 3/1/12
f 11/5/13 8/4/14 7/3/15 9/6/16
f 11/5/17 12/14/18 13/15/19 10/9/20
f 8/4/21 11/5/22 10/9/23 6/7/24
f 2/8/25 6/7/26 15/10/27 14/11/28
f 6/7/29 10/9/30 16/16/31 15/10/32
