# This file uses centimeters as units for non-parametric coordinates.

mtllib Cross_Road.mtl
g default
v 2275.949208 0.000105 3309.280775
v 774.197987 -0.000053 3309.280775
v 1374.228260 0.000000 3309.280775
v 1374.228260 0.000000 4209.337904
v 774.197987 -0.000053 4209.337904
v 774.197987 -0.000053 3004.909438
v 2275.949208 0.000105 3004.909682
v 1374.228260 0.000000 3004.909682
v 2275.949208 0.000105 2700.538100
v 774.197987 -0.000053 2700.538100
v 1374.228260 -0.000000 2700.538100
v 1374.228260 -0.000000 1800.480971
v 774.197987 -0.000053 1800.480971
v 774.197987 -0.000053 3004.909438
v 2275.949208 0.000105 3004.909193
v 1374.228260 -0.000000 3004.909193
v -125.296520 -0.000053 3309.280775
v -125.296520 -0.000053 3004.909438
v -125.296520 -0.000053 2700.538100
v -125.296520 -0.000053 3004.909438
vt 0.371267 0.371928
vt 0.371267 0.001970
vt 0.496144 0.001970
vt 0.496144 0.371928
vt 0.496144 0.618107
vt 0.371267 0.618107
vt 0.496144 0.987151
vt 0.371267 0.987151
vt 0.001992 0.618107
vt 0.001992 0.371928
vt 0.628733 0.371928
vt 0.503856 0.371928
vt 0.503856 0.001970
vt 0.628733 0.001970
vt 0.628733 0.618107
vt 0.503856 0.618107
vt 0.998008 0.371928
vt 0.998008 0.618107
vt 0.628733 0.987151
vt 0.503856 0.987151
vn -0.000000 1.000000 0.000000
vn -0.000000 1.000000 0.000000
vn -0.000000 1.000000 0.000000
vn -0.000000 1.000000 0.000000
vn -0.000000 1.000000 0.000000
vn -0.000000 1.000000 0.000000
vn -0.000000 1.000000 0.000000
vn -0.000000 1.000000 0.000000
vn -0.000000 1.000000 0.000000
vn -0.000000 1.000000 0.000000
vn -0.000000 1.000000 0.000000
vn -0.000000 1.000000 0.000000
vn -0.000000 1.000000 0.000000
vn -0.000000 1.000000 0.000000
vn -0.000000 1.000000 0.000000
vn -0.000000 1.000000 0.000000
vn -0.000000 1.000000 0.000000
vn -0.000000 1.000000 0.000000
vn -0.000000 1.000000 0.000000
vn -0.000000 1.000000 0.000000
vn -0.000000 1.000000 0.000000
vn -0.000000 1.000000 0.000000
vn -0.000000 1.000000 0.000000
vn -0.000000 1.000000 0.000000
vn 0.000000 1.000000 0.000000
vn 0.000000 1.000000 0.000000
vn 0.000000 1.000000 0.000000
vn 0.000000 1.000000 0.000000
vn 0.000000 1.000000 0.000000
vn 0.000000 1.000000 0.000000
vn 0.000000 1.000000 0.000000
vn 0.000000 1.000000 0.000000
s off
g Road_part20
usemtl lambert3SG
f 3/1/1 1/2/2 7/3/3 8/4/4
f 3/1/5 2/6/6 5/9/7 4/10/8
f 8/4/9 6/5/10 2/6/11 3/1/12
f 11/11/13 16/12/14 15/13/15 9/14/16
f 11/11/17 12/17/18 13/18/19 10/15/20
f 16/12/21 11/11/22 10/15/23 14/16/24
f 2/6/25 6/5/26 18/7/27 17/8/28
f 14/16/29 10/15/30 19/19/31 20/20/32
